<?xml version="1.0" encoding="UTF-8"?>
<svg xmlns="http://www.w3.org/2000/svg" viewBox="0 0 512 512">
  <title>CSS3 Logo</title>
  <path fill="#264DE4" d="M71.357,460.819L30.272,0h451.456l-41.129,460.746L255.724,512"/>
  <path fill="#2965F1" d="M405.388,431.408l35.148-393.73H256v435.146"/>
  <path fill="#EBEBEB" d="M124.46,208.59l5.065,56.517H256V208.59H124.46z M119.419,150.715l5.141,56.517H256V150.715H119.419z M256,346.877l-0.248,0.066-62.944-16.996-4.023-45.076h-56.736l7.919,88.741 116.032,32.206"/>
  <path fill="#fff" d="M255.805,208.59v56.517h69.425l-6.477,73.299-62.948,16.996v58.879l115.867-32.293 0.891-9.98 13.244-148.518 1.382-15.3 10.296-115.375H255.805v56.517h129.176l-5.097,56.517H255.805z"/>
</svg> 