<?xml version="1.0" encoding="UTF-8"?>
<svg xmlns="http://www.w3.org/2000/svg" viewBox="0 0 128 128">
  <path fill-rule="evenodd" clip-rule="evenodd" fill="#3A4D54" d="M20 96.9v-6.4H0V78.3h20v-6.2H0V59.9h20v-6.2H0V41.5h20v-6.2H0V23.1h20v-6.2H0V4.7h20V0h107.7v96.9H20zm87.3-79.2c-3.9-2.6-9.1-2.6-13 0l-1.7 1.1c-.3.2-.5.4-.8.7-.2.2-.5.4-.7.6-.5.4-.9.9-1.3 1.4-.4.5-.8 1-1.1 1.5-.4.6-.7 1.2-1 1.8-.3.6-.5 1.3-.7 1.9-.2.7-.3 1.4-.4 2.1-.1.7-.1 1.4-.1 2.1 0 .7.1 1.5.2 2.2.1.7.3 1.4.5 2.1.2.7.5 1.3.8 2 .3.6.7 1.2 1.1 1.8.4.6.8 1.1 1.3 1.6.5.5.9.9 1.5 1.3.5.4 1.1.8 1.7 1.1.6.3 1.2.6 1.8.8.6.2 1.3.4 2 .5.7.1 1.4.2 2.1.2.7 0 1.4-.1 2.1-.2.7-.1 1.4-.3 2-.5.6-.2 1.3-.5 1.8-.8.6-.3 1.2-.7 1.7-1.1.5-.4 1-.9 1.5-1.3.4-.5.9-1 1.3-1.6.4-.6.7-1.2 1.1-1.8.3-.6.6-1.3.8-2 .2-.7.4-1.4.5-2.1.1-.7.2-1.5.2-2.2 0-.7-.1-1.4-.1-2.1-.1-.7-.2-1.4-.4-2.1-.2-.7-.4-1.3-.7-1.9-.3-.6-.6-1.2-1-1.8-.4-.5-.7-1.1-1.1-1.5-.4-.5-.8-.9-1.3-1.4-.2-.2-.5-.4-.7-.6-.3-.2-.5-.5-.8-.7l-1.7-1.1zM42.5 70.5c-1.9 1.2-4.3 1.2-6.2 0l-.8-.5c-.1-.1-.3-.2-.4-.3l-.3-.3c-.2-.2-.4-.4-.6-.7-.2-.2-.4-.5-.5-.7-.2-.3-.3-.6-.5-.9-.1-.3-.2-.6-.3-.9-.1-.3-.2-.7-.2-1-.1-.3 0-.7 0-1s0-.7.1-1.1c.1-.3.1-.7.2-1 .1-.3.2-.6.4-.9.1-.3.3-.6.5-.9.2-.3.4-.5.6-.8.2-.2.4-.4.7-.6.2-.2.5-.4.8-.5.3-.2.6-.3.9-.4.3-.1.6-.2 1-.3.3-.1.7-.1 1-.1.4 0 .7 0 1 .1.3.1.7.1 1 .3.3.1.6.2.9.4.3.2.6.3.8.5.2.2.5.4.7.6.2.2.4.5.6.8.2.3.3.6.5.9.1.3.3.6.4.9.1.3.2.7.2 1 .1.4.1.7.1 1.1s0 .7 0 1c-.1.3-.1.7-.2 1-.1.3-.2.6-.3.9-.1.3-.3.6-.5.9-.2.3-.3.5-.5.7-.2.2-.4.5-.6.7l-.3.3c-.1.1-.3.2-.4.3l-.8.5zm87.8-36.3c-4.1-2.7-9.5-2.7-13.6 0l-1.8 1.2c-.3.2-.6.4-.8.7-.3.2-.5.4-.7.7-.5.4-.9.9-1.3 1.4-.4.5-.8 1-1.1 1.6-.4.6-.7 1.2-1 1.9-.3.6-.5 1.3-.7 2-.2.7-.3 1.4-.4 2.2-.1.7-.1 1.5-.1 2.2 0 .7.1 1.5.2 2.3.1.7.3 1.5.5 2.2.2.7.5 1.4.8 2 .3.6.7 1.3 1.1 1.8.4.6.9 1.1 1.3 1.6.5.5 1 1 1.5 1.4.5.4 1.1.8 1.7 1.1.6.3 1.2.6 1.9.8.6.2 1.3.4 2 .5.7.1 1.4.2 2.2.2.7 0 1.5-.1 2.2-.2.7-.1 1.4-.3 2-.5.6-.2 1.3-.5 1.9-.8.6-.3 1.2-.7 1.7-1.1.5-.4 1.1-.9 1.5-1.4.5-.5.9-1 1.3-1.6.4-.6.8-1.2 1.1-1.8.3-.6.6-1.3.8-2 .2-.7.4-1.4.5-2.2.1-.8.2-1.5.2-2.3 0-.7-.1-1.5-.1-2.2-.1-.7-.2-1.5-.4-2.2-.2-.7-.4-1.3-.7-2-.3-.6-.6-1.3-1-1.9-.4-.5-.7-1.1-1.1-1.6-.4-.5-.8-1-1.3-1.4-.2-.2-.5-.5-.7-.7-.3-.2-.5-.5-.8-.7l-1.8-1.2z"/>
  <path fill="#00AADA" d="M110.4 37.1l-1.8 1.2c-.3.2-.6.4-.8.7l-.7.7c-.5.4-.9.9-1.3 1.4-.4.5-.8 1-1.1 1.6-.4.6-.7 1.2-1 1.9-.3.6-.5 1.3-.7 2-.2.7-.3 1.4-.4 2.2-.1.7-.1 1.5-.1 2.2 0 .7.1 1.5.2 2.3.1.7.3 1.5.5 2.2.2.7.5 1.4.8 2 .3.6.7 1.3 1.1 1.8.4.6.9 1.1 1.3 1.6.5.5 1 1 1.5 1.4.5.4 1.1.8 1.7 1.1.6.3 1.2.6 1.9.8.6.2 1.3.4 2 .5.7.1 1.4.2 2.2.2V37.1h-4.3z"/>
  <path fill="#28B8EB" d="M110.4 37.1l-1.8 1.2c-.3.2-.6.4-.8.7l-.7.7c-.5.4-.9.9-1.3 1.4-.4.5-.8 1-1.1 1.6-.4.6-.7 1.2-1 1.9-.3.6-.5 1.3-.7 2-.2.7-.3 1.4-.4 2.2-.1.7-.1 1.5-.1 2.2 0 .7.1 1.5.2 2.3.1.7.3 1.5.5 2.2.2.7.5 1.4.8 2 .3.6.7 1.3 1.1 1.8.4.6.9 1.1 1.3 1.6.5.5 1 1 1.5 1.4.5.4 1.1.8 1.7 1.1.6.3 1.2.6 1.9.8.6.2 1.3.4 2 .5.7.1 1.4.2 2.2.2.7 0 1.5-.1 2.2-.2.7-.1 1.4-.3 2-.5.6-.2 1.3-.5 1.9-.8.6-.3 1.2-.7 1.7-1.1.5-.4 1.1-.9 1.5-1.4.5-.5.9-1 1.3-1.6.4-.6.8-1.2 1.1-1.8.3-.6.6-1.3.8-2 .2-.7.4-1.4.5-2.2.1-.8.2-1.5.2-2.3 0-.7-.1-1.5-.1-2.2-.1-.7-.2-1.5-.4-2.2-.2-.7-.4-1.3-.7-2-.3-.6-.6-1.3-1-1.9-.4-.5-.7-1.1-1.1-1.6-.4-.5-.8-1-1.3-1.4-.2-.2-.5-.5-.7-.7-.3-.2-.5-.5-.8-.7l-1.8-1.2h-8.5z"/>
  <path fill="#028BB8" d="M110.4 37.1l-1.8 1.2c-.3.2-.6.4-.8.7l-.7.7c-.5.4-.9.9-1.3 1.4-.4.5-.8 1-1.1 1.6-.4.6-.7 1.2-1 1.9-.3.6-.5 1.3-.7 2-.2.7-.3 1.4-.4 2.2-.1.7-.1 1.5-.1 2.2 0 .7.1 1.5.2 2.3.1.7.3 1.5.5 2.2.2.7.5 1.4.8 2 .3.6.7 1.3 1.1 1.8.4.6.9 1.1 1.3 1.6.5.5 1 1 1.5 1.4.5.4 1.1.8 1.7 1.1.6.3 1.2.6 1.9.8.6.2 1.3.4 2 .5.7.1 1.4.2 2.2.2.7 0 1.5-.1 2.2-.2.7-.1 1.4-.3 2-.5.6-.2 1.3-.5 1.9-.8.6-.3 1.2-.7 1.7-1.1.5-.4 1.1-.9 1.5-1.4.5-.5.9-1 1.3-1.6.4-.6.8-1.2 1.1-1.8.3-.6.6-1.3.8-2 .2-.7.4-1.4.5-2.2.1-.8.2-1.5.2-2.3 0-.7-.1-1.5-.1-2.2-.1-.7-.2-1.5-.4-2.2-.2-.7-.4-1.3-.7-2-.3-.6-.6-1.3-1-1.9-.4-.5-.7-1.1-1.1-1.6-.4-.5-.8-1-1.3-1.4-.2-.2-.5-.5-.7-.7-.3-.2-.5-.5-.8-.7l-1.8-1.2h-4.3z"/>
</svg> 