<?xml version="1.0" encoding="UTF-8"?>
<svg xmlns="http://www.w3.org/2000/svg" viewBox="0 0 128 128">
  <path fill="#13AA52" d="M64 120.73c-1.333-.518-2.667-1.05-3.982-1.628C47.408 113.597 34.816 107.99 24.153 99.5c-6.49-5.165-11.972-11.161-15.299-18.737C5.05 72.16 1.99 62.989 1.195 52.923c-.514-6.505-.116-12.947 1.116-19.315 2.743-14.193 10.445-25.173 22.583-33.053 9.006-5.83 18.927-9.592 29.422-12.11C56.992-12.158 59.592-13 64-13c4.408 0 7.008.842 9.684 1.445 10.495 2.518 20.416 6.28 29.422 12.11 12.138 7.88 19.84 18.86 22.583 33.053 1.232 6.368 1.63 12.81 1.116 19.315-.795 10.066-3.855 19.237-7.659 27.84-3.327 7.576-8.809 13.572-15.299 18.737-10.663 8.49-23.255 14.097-35.865 19.602-1.315.578-2.649 1.11-3.982 1.628z"/>
  <path fill="#FFFFFF" d="M64 98.712c-.975-4.385-1.647-7.426-2.55-10.384-.3-.983-.923-1.92-1.595-2.75-3.123-3.856-6.346-7.631-9.478-11.482-3.476-4.273-6.926-8.565-10.334-12.886-2.815-3.567-5.156-7.407-6.278-11.752-1.532-5.928-1.682-11.87-.155-17.819 1.797-7.007 5.694-12.654 11.302-17.18 3.923-3.16 8.373-5.36 13.182-6.839 2.416-.744 4.92-1.228 7.447-1.42.886-.068 1.772-.137 2.658-.205.886.068 1.772.137 2.658.205 2.527.192 5.031.676 7.447 1.42 4.809 1.479 9.259 3.679 13.182 6.839 5.608 4.526 9.505 10.173 11.302 17.18 1.527 5.949 1.377 11.891-.155 17.819-1.122 4.345-3.463 8.185-6.278 11.752-3.408 4.321-6.858 8.613-10.334 12.886-3.132 3.851-6.355 7.626-9.478 11.482-.672.83-1.295 1.767-1.595 2.75-.903 2.958-1.575 5.999-2.55 10.384z"/>
  <path fill="#13AA52" d="M64 84.498c-.245-1.094-.412-1.857-.638-2.596-.3-.983-.923-1.92-1.595-2.75-3.123-3.856-6.346-7.631-9.478-11.482-3.476-4.273-6.926-8.565-10.334-12.886-2.815-3.567-5.156-7.407-6.278-11.752-1.532-5.928-1.682-11.87-.155-17.819 1.797-7.007 5.694-12.654 11.302-17.18 3.923-3.16 8.373-5.36 13.182-6.839 2.416-.744 4.92-1.228 7.447-1.42.886-.068 1.772-.137 2.658-.205.886.068 1.772.137 2.658.205 2.527.192 5.031.676 7.447 1.42 4.809 1.479 9.259 3.679 13.182 6.839 5.608 4.526 9.505 10.173 11.302 17.18 1.527 5.949 1.377 11.891-.155 17.819-1.122 4.345-3.463 8.185-6.278 11.752-3.408 4.321-6.858 8.613-10.334 12.886-3.132 3.851-6.355 7.626-9.478 11.482-.672.83-1.295 1.767-1.595 2.75-.226.739-.393 1.502-.638 2.596z"/>
</svg> 