<?xml version="1.0" encoding="UTF-8"?>
<svg xmlns="http://www.w3.org/2000/svg" viewBox="0 0 128 128">
  <path fill="#000000" d="M64 0C28.7 0 0 28.7 0 64s28.7 64 64 64 64-28.7 64-64S99.3 0 64 0zm0 117.3C34.6 117.3 10.7 93.4 10.7 64S34.6 10.7 64 10.7 117.3 34.6 117.3 64 93.4 117.3 64 117.3z"/>
  <path fill="#000000" d="M64 21.3c-23.6 0-42.7 19.1-42.7 42.7s19.1 42.7 42.7 42.7 42.7-19.1 42.7-42.7S87.6 21.3 64 21.3zm0 74.7c-17.6 0-32-14.4-32-32s14.4-32 32-32 32 14.4 32 32-14.4 32-32 32z"/>
  <path fill="#000000" d="M64 42.7c-11.8 0-21.3 9.6-21.3 21.3S52.2 85.3 64 85.3 85.3 75.8 85.3 64 75.8 42.7 64 42.7zm0 32c-5.9 0-10.7-4.8-10.7-10.7S58.1 53.3 64 53.3 74.7 58.1 74.7 64 69.9 74.7 64 74.7z"/>
</svg> 