<?xml version="1.0" encoding="UTF-8"?>
<svg xmlns="http://www.w3.org/2000/svg" viewBox="0 0 128 128">
  <rect width="128" height="128" rx="6" fill="#3178c6"/>
  <path fill="white" d="M74.262 99.468v14.026c2.287 1.174 4.992 2.055 8.114 2.643 3.121.588 6.41.882 9.867.882 3.373 0 6.578-.304 9.615-.911 3.037-.607 5.698-1.607 7.983-3 2.285-1.394 4.089-3.23 5.412-5.509 1.322-2.279 1.983-5.155 1.983-8.627 0-2.482-.39-4.637-1.17-6.465-.781-1.827-1.888-3.428-3.321-4.802-1.433-1.374-3.144-2.605-5.134-3.693-1.989-1.087-4.197-2.125-6.622-3.112-1.807-.73-3.456-1.438-4.947-2.124-1.49-.685-2.762-1.374-3.815-2.067-1.054-.692-1.872-1.433-2.454-2.222-.583-.789-.874-1.676-.874-2.661 0-.902.25-1.69.749-2.362.499-.672 1.187-1.228 2.065-1.668.877-.44 1.912-.771 3.104-.993 1.191-.221 2.492-.332 3.902-.332 1.037 0 2.127.055 3.268.166 1.141.111 2.295.291 3.463.54 1.167.25 2.297.57 3.389.96 1.092.391 2.12.850 3.083 1.377v-13.031c-2.14-.812-4.433-1.421-6.879-1.826-2.446-.406-5.189-.609-8.229-.609-3.322 0-6.483.315-9.481.944s-5.627 1.642-7.885 3.037c-2.258 1.394-4.05 3.192-5.374 5.393-1.325 2.2-1.988 4.824-1.988 7.872 0 3.906 1.144 7.215 3.43 9.927 2.286 2.712 5.657 5.009 10.111 6.891 1.883.73 3.621 1.443 5.215 2.141 1.594.697 2.976 1.416 4.146 2.156 1.17.741 2.081 1.532 2.733 2.374.652.843.978 1.825.978 2.947 0 .867-.235 1.639-.704 2.316-.47.678-1.134 1.245-1.992 1.702-.858.457-1.874.803-3.048 1.038-1.174.236-2.478.354-3.912.354-2.816 0-5.59-.483-8.322-1.45-2.732-.966-5.252-2.416-7.561-4.351zM37.825 37.822h17.619v-12.309h-49.239v12.309h17.592v52.645h14.028v-52.645z"/>
</svg> 